<svg xmlns="http://www.w3.org/2000/svg" viewBox="0 0 200 200" width="100%" height="100%">
  <defs>
    <linearGradient id="topG" x1="0%" y1="0%" x2="100%" y2="100%">
      <stop offset="0%" stop-color="#00F5FF" />
      <stop offset="100%" stop-color="#0088FF" />
    </linearGradient>
    <linearGradient id="leftG" x1="0%" y1="0%" x2="100%" y2="100%">
      <stop offset="0%" stop-color="#8B5CF6" />
      <stop offset="100%" stop-color="#4338CA" />
    </linearGradient>
    <linearGradient id="rightG" x1="0%" y1="0%" x2="0%" y2="100%">
      <stop offset="0%" stop-color="#F43F5E" />
      <stop offset="100%" stop-color="#BE185D" />
    </linearGradient>
    <linearGradient id="coreG" x1="0%" y1="0%" x2="100%" y2="100%">
      <stop offset="0%" stop-color="#FBBF24" />
      <stop offset="100%" stop-color="#F59E0B" />
    </linearGradient>
    <filter id="coreGlow" x="-50%" y="-50%" width="200%" height="200%">
      <feGaussianBlur stdDeviation="8" result="blur" />
      <feComposite in="SourceGraphic" in2="blur" operator="over" />
    </filter>
  </defs>

  <g transform="translate(0, 0)">
    <path d="M 100,32 L 152,62 L 126,77 L 100,62 L 74,77 L 48,62 Z" fill="url(#topG)" stroke="#ffffff" stroke-width="1.5" stroke-opacity="0.3" stroke-linejoin="round"/>
    <path d="M 41,74 L 67,89 L 67,119 L 93,134 L 93,164 L 41,134 Z" fill="url(#leftG)" stroke="#ffffff" stroke-width="1.5" stroke-opacity="0.3" stroke-linejoin="round"/>
    <path d="M 159,74 L 159,134 L 107,164 L 107,134 L 133,119 L 133,89 Z" fill="url(#rightG)" stroke="#ffffff" stroke-width="1.5" stroke-opacity="0.3" stroke-linejoin="round"/>
    <circle cx="100" cy="100" r="16" fill="url(#coreG)" filter="url(#coreGlow)"/>
  </g>
</svg>
