<svg xmlns="http://www.w3.org/2000/svg" viewBox="0 0 200 200" width="100%" height="100%">
  <defs>
    <linearGradient id="iconGrad" x1="0%" y1="0%" x2="100%" y2="100%">
      <stop offset="0%" stop-color="#00E6FF" />
      <stop offset="100%" stop-color="#0055FF" />
    </linearGradient>
    <linearGradient id="starGrad" x1="0%" y1="0%" x2="100%" y2="100%">
      <stop offset="0%" stop-color="#FFD700" />
      <stop offset="100%" stop-color="#FF8C00" />
    </linearGradient>
  </defs>
  <path d="M 100 15 L 20 45 L 20 105 C 20 160 55 190 100 200 C 145 190 180 160 180 105 L 180 45 Z" fill="url(#iconGrad)" />
  <path d="M 100 15 L 100 200 M 20 105 L 180 105" stroke="#FFFFFF" stroke-width="2" stroke-opacity="0.2" fill="none" />
  <circle cx="100" cy="105" r="48" fill="#FFFFFF" />
  <path d="M 100 73 L 108.2 93.6 L 130.4 95.1 L 113.3 109.3 L 118.8 130.9 L 100 119 L 81.2 130.9 L 86.7 109.3 L 69.6 95.1 L 91.8 93.6 Z" fill="url(#starGrad)" />
</svg>
